<svg width="12" height="14" viewBox="0 0 12 14" fill="none" xmlns="http://www.w3.org/2000/svg">
<path d="M6.00674 0.33328C7.54965 0.33328 8.90529 1.29926 9.40214 2.71101C9.49398 2.97195 9.35341 3.25672 9.08817 3.34707C8.82294 3.43742 8.53348 3.29912 8.44164 3.03819C8.08545 2.02611 7.11313 1.33328 6.00472 1.33328C4.62673 1.3279 3.49704 2.38755 3.42213 3.72376L3.4182 3.85391L3.41816 4.75059L8.58904 4.75082C10.2402 4.75082 11.5878 6.03039 11.6635 7.63684L11.6668 7.77941V10.638C11.6668 12.3106 10.2888 13.6666 8.58904 13.6666H3.41128C1.71152 13.6666 0.333496 12.3106 0.333496 10.638V7.77941C0.333496 6.45477 1.19775 5.32876 2.40163 4.91755L2.40175 3.85172C2.41044 1.90047 4.02518 0.325576 6.00674 0.33328ZM8.58904 5.75079H3.41128C2.27293 5.75079 1.34994 6.65899 1.34994 7.77941V10.638C1.34994 11.7584 2.27293 12.6666 3.41128 12.6666H8.58904C9.7274 12.6666 10.6504 11.7584 10.6504 10.638V7.77941C10.6504 6.65899 9.7274 5.75079 8.58904 5.75079ZM6.0003 7.9682C6.25759 7.9682 6.47023 8.1563 6.50388 8.40034L6.50852 8.46819V9.94948C6.50852 10.2256 6.28098 10.4495 6.0003 10.4495C5.74301 10.4495 5.53037 10.2614 5.49672 10.0173L5.49208 9.94948V8.46819C5.49208 8.19205 5.71962 7.9682 6.0003 7.9682Z" fill="#ABBBC2"/>
</svg>
